<svg xmlns="http://www.w3.org/2000/svg" xmlns:xlink="http://www.w3.org/1999/xlink" width="500" zoomAndPan="magnify" viewBox="0 0 375 374.999991" height="500" preserveAspectRatio="xMidYMid meet" version="1.0"><defs><g/><clipPath id="4095da474b"><path d="M 57 240 L 119 240 L 119 247.632812 L 57 247.632812 Z M 57 240 " clip-rule="nonzero"/></clipPath><clipPath id="b42f49baa9"><path d="M 37.5 127.632812 L 144 127.632812 L 144 239 L 37.5 239 Z M 37.5 127.632812 " clip-rule="nonzero"/></clipPath></defs><g clip-path="url(#4095da474b)"><path fill="#7c898b" d="M 99.042969 245.429688 C 103.722656 245.648438 106.796875 246 106.796875 246.4375 C 106.796875 247.089844 98.828125 247.632812 89.007812 247.632812 C 79.191406 247.632812 71.222656 247.089844 71.222656 246.4375 C 71.222656 246.027344 74.105469 245.675781 78.511719 245.457031 C 66.4375 245.324219 57.734375 244.914062 57.734375 244.453125 C 57.734375 244.074219 63.960938 243.71875 73.179688 243.53125 C 70.570312 243.175781 69.019531 242.714844 69.019531 242.253906 C 69.019531 241.058594 78.703125 240.082031 90.667969 240.082031 C 102.609375 240.082031 112.316406 241.058594 112.316406 242.253906 C 112.316406 242.796875 110.414062 243.257812 107.285156 243.636719 C 113.921875 243.828125 118.136719 244.128906 118.136719 244.453125 C 118.136719 244.886719 110.25 245.269531 99.097656 245.429688 Z M 99.042969 245.429688 " fill-opacity="1" fill-rule="evenodd"/></g><g clip-path="url(#b42f49baa9)"><path fill="#ffffff" d="M 119.660156 220.359375 C 124.746094 220.6875 127.738281 221.066406 127.738281 221.5 C 127.738281 222.234375 119.222656 222.859375 106.632812 223.1875 C 113.675781 223.917969 118.21875 225.058594 118.21875 226.335938 C 118.21875 227.613281 113.785156 228.753906 106.878906 229.488281 C 117.429688 229.839844 124.9375 230.738281 124.9375 231.796875 C 124.9375 232.367188 122.652344 232.910156 118.84375 233.34375 C 133.449219 233.699219 143.753906 234.59375 143.753906 235.625 C 143.753906 236.984375 126.023438 238.070312 104.183594 238.070312 C 82.320312 238.070312 64.613281 236.984375 64.613281 235.625 C 64.613281 234.839844 70.542969 234.160156 79.761719 233.699219 C 73.671875 233.234375 69.808594 232.554688 69.808594 231.824219 C 69.808594 231.144531 73.019531 230.519531 78.183594 230.058594 C 67.441406 229.460938 59.882812 228.046875 59.882812 226.390625 C 59.882812 225.140625 64.125 224.027344 70.761719 223.292969 C 56.375 222.996094 46.339844 222.316406 46.339844 221.554688 C 46.339844 220.632812 60.261719 219.871094 78.8125 219.683594 C 70.296875 217.972656 62.820312 217.183594 56.347656 217.265625 C 44.953125 207.648438 37.71875 193.28125 37.71875 177.226562 C 37.71875 154.277344 52.511719 134.746094 73.097656 127.6875 C 62.847656 136.40625 56.347656 149.386719 56.347656 163.863281 C 56.347656 190.074219 77.640625 211.34375 103.886719 211.34375 C 118 211.34375 130.675781 205.203125 139.378906 195.453125 C 135.597656 205.667969 128.714844 214.359375 119.878906 220.441406 L 119.6875 220.441406 Z M 119.660156 220.359375 " fill-opacity="1" fill-rule="evenodd"/></g><g fill="#ffffff" fill-opacity="1"><g transform="translate(154.161014, 183.010594)"><g><path d="M 11.609375 1.609375 C 11.140625 1.742188 10.691406 1.816406 10.265625 1.828125 C 9.835938 1.835938 9.40625 1.851562 8.96875 1.875 C 8.539062 1.894531 7.945312 1.90625 7.1875 1.90625 C 6.425781 1.90625 5.289062 1.882812 3.78125 1.84375 C 3.425781 1.863281 3.066406 1.875 2.703125 1.875 C 2.347656 1.875 2.015625 1.804688 1.703125 1.671875 C 1.015625 1.378906 0.546875 0.710938 0.296875 -0.328125 C 0.179688 -0.828125 0.0546875 -1.175781 -0.078125 -1.375 C -0.222656 -1.570312 -0.34375 -1.757812 -0.4375 -1.9375 C -0.65625 -2.289062 -0.632812 -2.878906 -0.375 -3.703125 C -0.125 -4.535156 0.195312 -5.554688 0.59375 -6.765625 C 1 -7.984375 1.457031 -9.273438 1.96875 -10.640625 C 3.175781 -13.867188 4.257812 -16.429688 5.21875 -18.328125 C 5.59375 -19.179688 5.921875 -19.921875 6.203125 -20.546875 C 6.484375 -21.171875 6.734375 -21.707031 6.953125 -22.15625 C 7.179688 -22.613281 7.296875 -22.851562 7.296875 -22.875 C 7.515625 -23.726562 8.367188 -24.441406 9.859375 -25.015625 C 11.316406 -25.617188 12.632812 -25.773438 13.8125 -25.484375 C 15.125 -25.148438 15.703125 -24.28125 15.546875 -22.875 C 15.234375 -21.5 14.769531 -20.117188 14.15625 -18.734375 C 13.550781 -17.347656 12.859375 -15.894531 12.078125 -14.375 C 11.296875 -12.863281 10.445312 -11.257812 9.53125 -9.5625 C 8.613281 -7.875 7.710938 -6.035156 6.828125 -4.046875 C 6.796875 -3.953125 6.835938 -3.875 6.953125 -3.8125 C 7.242188 -3.832031 7.648438 -3.921875 8.171875 -4.078125 C 8.703125 -4.234375 9.25 -4.375 9.8125 -4.5 C 10.382812 -4.625 10.945312 -4.6875 11.5 -4.6875 C 12.0625 -4.6875 12.53125 -4.539062 12.90625 -4.25 C 12.882812 -3.84375 12.984375 -3.519531 13.203125 -3.28125 C 13.429688 -3.050781 13.65625 -2.828125 13.875 -2.609375 C 14.4375 -2.023438 14.484375 -1.253906 14.015625 -0.296875 C 13.566406 0.640625 12.765625 1.273438 11.609375 1.609375 Z M 11.609375 1.609375 "/></g></g></g><g fill="#ffffff" fill-opacity="1"><g transform="translate(169.785425, 183.010594)"><g><path d="M 11.671875 -4.953125 C 11.253906 -4.753906 10.84375 -4.597656 10.4375 -4.484375 C 10.03125 -4.367188 9.5625 -4.253906 9.03125 -4.140625 C 7.625 -3.859375 6.609375 -3.691406 5.984375 -3.640625 C 6.054688 -3.421875 6.390625 -3.15625 6.984375 -2.84375 C 7.390625 -2.78125 7.832031 -2.84375 8.3125 -3.03125 C 8.789062 -3.21875 9.289062 -3.394531 9.8125 -3.5625 C 10.34375 -3.726562 10.859375 -3.820312 11.359375 -3.84375 C 11.859375 -3.863281 12.332031 -3.675781 12.78125 -3.28125 C 12.957031 -2.875 13.097656 -2.632812 13.203125 -2.5625 C 13.316406 -2.5 13.421875 -2.46875 13.515625 -2.46875 C 13.609375 -2.46875 13.707031 -2.4375 13.8125 -2.375 C 13.925781 -2.3125 14.085938 -2.054688 14.296875 -1.609375 C 14.515625 -1.160156 14.460938 -0.734375 14.140625 -0.328125 C 13.816406 0.0664062 13.316406 0.410156 12.640625 0.703125 C 11.972656 0.992188 11.191406 1.226562 10.296875 1.40625 C 9.410156 1.582031 8.519531 1.703125 7.625 1.765625 C 5.613281 1.921875 4.085938 1.765625 3.046875 1.296875 C 1.523438 0.785156 0.539062 -0.222656 0.09375 -1.734375 C -0.476562 -3.742188 -0.148438 -6.085938 1.078125 -8.765625 C 1.628906 -10.015625 2.507812 -11.351562 3.71875 -12.78125 C 4.757812 -14.03125 5.925781 -14.929688 7.21875 -15.484375 C 8.71875 -16.128906 10.28125 -16.429688 11.90625 -16.390625 C 13.644531 -16.347656 14.847656 -15.59375 15.515625 -14.125 C 15.859375 -13.34375 15.925781 -12.25 15.71875 -10.84375 C 15.363281 -9.007812 14.894531 -7.710938 14.3125 -6.953125 C 13.738281 -6.222656 12.859375 -5.554688 11.671875 -4.953125 Z M 9.734375 -10.234375 C 8.554688 -10.484375 7.628906 -9.816406 6.953125 -8.234375 C 6.753906 -7.804688 6.597656 -7.359375 6.484375 -6.890625 C 7.242188 -6.796875 8.050781 -7.21875 8.90625 -8.15625 C 9.207031 -8.539062 9.4375 -8.925781 9.59375 -9.3125 C 9.75 -9.707031 9.796875 -10.015625 9.734375 -10.234375 Z M 9.734375 -10.234375 "/></g></g></g><g fill="#ffffff" fill-opacity="1"><g transform="translate(185.911695, 183.010594)"><g><path d="M 12.109375 0.796875 C 11.234375 1.515625 10.195312 2.054688 9 2.421875 C 7.8125 2.796875 6.613281 2.992188 5.40625 3.015625 C 4.207031 3.035156 3.082031 2.890625 2.03125 2.578125 C 0.988281 2.265625 0.164062 1.773438 -0.4375 1.109375 C -1.144531 0.347656 -1.390625 -0.410156 -1.171875 -1.171875 C -1.054688 -1.484375 -0.859375 -1.726562 -0.578125 -1.90625 C -0.304688 -2.082031 0.03125 -2.128906 0.4375 -2.046875 C 0.695312 -2.015625 0.890625 -2.082031 1.015625 -2.25 C 1.140625 -2.425781 1.242188 -2.617188 1.328125 -2.828125 C 1.421875 -3.035156 1.519531 -3.234375 1.625 -3.421875 C 1.738281 -3.617188 1.921875 -3.71875 2.171875 -3.71875 C 6.097656 -3.601562 8.140625 -3.945312 8.296875 -4.75 C 8.023438 -5 7.691406 -5.210938 7.296875 -5.390625 C 6.910156 -5.566406 6.519531 -5.742188 6.125 -5.921875 C 5.132812 -6.367188 4.472656 -6.859375 4.140625 -7.390625 C 3.722656 -7.617188 3.398438 -8.15625 3.171875 -9 C 3.066406 -9.375 3.015625 -9.757812 3.015625 -10.15625 C 3.015625 -10.5625 3.078125 -10.9375 3.203125 -11.28125 C 3.140625 -12.144531 3.675781 -13.101562 4.8125 -14.15625 C 5.125 -14.4375 5.515625 -14.742188 5.984375 -15.078125 C 6.453125 -15.421875 7.15625 -15.75 8.09375 -16.0625 C 9.03125 -16.375 9.960938 -16.597656 10.890625 -16.734375 C 11.816406 -16.878906 12.648438 -16.929688 13.390625 -16.890625 C 14.140625 -16.847656 14.675781 -16.671875 15 -16.359375 C 15.320312 -16.046875 15.578125 -15.65625 15.765625 -15.1875 C 15.960938 -14.71875 16.023438 -14.257812 15.953125 -13.8125 C 15.773438 -12.8125 14.953125 -12.117188 13.484375 -11.734375 C 11.628906 -11.472656 10.734375 -11.226562 10.796875 -11 C 10.796875 -10.957031 10.71875 -10.90625 10.5625 -10.84375 C 12.28125 -9.65625 13.476562 -8.492188 14.15625 -7.359375 C 15.0625 -5.796875 15.191406 -4.054688 14.546875 -2.140625 C 14.660156 -1.515625 14.101562 -0.734375 12.875 0.203125 C 12.582031 0.421875 12.328125 0.617188 12.109375 0.796875 Z M 12.109375 0.796875 "/></g></g></g><g fill="#ffffff" fill-opacity="1"><g transform="translate(202.840927, 183.010594)"><g/></g></g><g fill="#ffffff" fill-opacity="1"><g transform="translate(213.279506, 183.010594)"><g><path d="M 18.125 -3.578125 C 18.125 -2.398438 18.269531 -1.375 18.5625 -0.5 C 18.5625 0.207031 18.394531 0.710938 18.0625 1.015625 C 17.726562 1.316406 17.3125 1.472656 16.8125 1.484375 C 16.3125 1.492188 15.78125 1.394531 15.21875 1.1875 C 14.664062 0.976562 14.191406 0.71875 13.796875 0.40625 C 13.410156 0.09375 13.160156 -0.15625 13.046875 -0.34375 C 12.929688 -0.539062 12.753906 -0.828125 12.515625 -1.203125 C 12.128906 -2.960938 11.945312 -4.109375 11.96875 -4.640625 C 12 -5.179688 12.046875 -5.640625 12.109375 -6.015625 C 10.992188 -5.441406 10.222656 -4.941406 9.796875 -4.515625 C 9.015625 -3.734375 8.359375 -2.726562 7.828125 -1.5 C 7.648438 -0.519531 7.503906 -0.00390625 7.390625 0.046875 C 7.273438 0.109375 7.128906 0.148438 6.953125 0.171875 C 6.773438 0.191406 6.585938 0.269531 6.390625 0.40625 C 6.191406 0.539062 6 0.648438 5.8125 0.734375 C 5.632812 0.828125 5.457031 0.914062 5.28125 1 C 4.863281 1.25 4.585938 1.375 4.453125 1.375 C 3.179688 1.769531 1.960938 1.59375 0.796875 0.84375 C 0.304688 0.5 -0.0664062 0.0664062 -0.328125 -0.453125 C -0.597656 -0.972656 -0.664062 -1.535156 -0.53125 -2.140625 C 0.425781 -6.265625 1.738281 -10.46875 3.40625 -14.75 C 4.4375 -17.363281 5.421875 -19.425781 6.359375 -20.9375 C 6.578125 -21.300781 6.800781 -21.679688 7.03125 -22.078125 C 7.5 -22.878906 7.820312 -23.425781 8 -23.71875 C 7.769531 -24.300781 7.769531 -24.804688 8 -25.234375 C 8.238281 -25.671875 8.597656 -26.015625 9.078125 -26.265625 C 9.554688 -26.523438 10.109375 -26.703125 10.734375 -26.796875 C 11.359375 -26.890625 11.953125 -26.898438 12.515625 -26.828125 C 13.847656 -26.628906 14.5625 -26.101562 14.65625 -25.25 C 14.519531 -24.851562 14.332031 -24.375 14.09375 -23.8125 C 13.863281 -23.257812 13.628906 -22.695312 13.390625 -22.125 C 13.160156 -21.5625 12.9375 -21.03125 12.71875 -20.53125 C 12.507812 -20.039062 12.351562 -19.679688 12.25 -19.453125 C 12.15625 -19.222656 12.015625 -18.820312 11.828125 -18.25 C 11.640625 -17.675781 11.4375 -17.0625 11.21875 -16.40625 C 11.007812 -15.75 10.816406 -15.140625 10.640625 -14.578125 L 10.234375 -13.421875 C 10.148438 -13.109375 10.003906 -12.632812 9.796875 -12 C 9.597656 -11.363281 9.390625 -10.578125 9.171875 -9.640625 C 9.453125 -9.859375 9.6875 -10.117188 9.875 -10.421875 C 10.070312 -10.722656 10.351562 -11.0625 10.71875 -11.4375 C 11.09375 -11.820312 11.570312 -12.195312 12.15625 -12.5625 C 12.75 -12.925781 13.378906 -13.164062 14.046875 -13.28125 C 15.492188 -13.53125 16.8125 -13.0625 18 -11.875 C 18.894531 -10.976562 19.171875 -9.640625 18.828125 -7.859375 C 18.703125 -7.117188 18.539062 -6.375 18.34375 -5.625 C 18.15625 -4.882812 18.082031 -4.203125 18.125 -3.578125 Z M 18.125 -3.578125 "/></g></g></g><g fill="#ffffff" fill-opacity="1"><g transform="translate(233.052583, 183.010594)"><g><path d="M 4.421875 -14.484375 C 4.703125 -15.222656 5.390625 -15.722656 6.484375 -15.984375 C 7.515625 -16.253906 8.472656 -16.222656 9.359375 -15.890625 C 10.273438 -15.535156 10.691406 -14.957031 10.609375 -14.15625 C 10.359375 -13.375 10.046875 -12.414062 9.671875 -11.28125 C 9.304688 -10.15625 8.957031 -9.003906 8.625 -7.828125 C 7.738281 -4.796875 7.226562 -2.65625 7.09375 -1.40625 C 6.757812 0.601562 6.203125 1.6875 5.421875 1.84375 C 5.191406 1.882812 4.976562 1.914062 4.78125 1.9375 C 4.289062 1.957031 3.976562 2.085938 3.84375 2.328125 C 3.707031 2.578125 3.484375 2.765625 3.171875 2.890625 C 2.859375 3.015625 2.519531 3.070312 2.15625 3.0625 C 1.789062 3.050781 1.414062 2.960938 1.03125 2.796875 C 0.65625 2.628906 0.332031 2.390625 0.0625 2.078125 C -0.5625 1.316406 -0.679688 0.300781 -0.296875 -0.96875 C 0.0546875 -3.394531 0.957031 -6.484375 2.40625 -10.234375 C 3.101562 -12.085938 3.773438 -13.503906 4.421875 -14.484375 Z M 10.734375 -19.5 C 9.640625 -19.28125 8.753906 -19.347656 8.078125 -19.703125 C 7.398438 -20.054688 7.003906 -20.484375 6.890625 -20.984375 C 6.773438 -21.492188 6.929688 -22.015625 7.359375 -22.546875 C 7.847656 -23.210938 8.582031 -23.648438 9.5625 -23.859375 C 10.007812 -23.898438 10.332031 -23.921875 10.53125 -23.921875 C 10.738281 -23.921875 10.988281 -23.875 11.28125 -23.78125 C 12.007812 -23.71875 12.488281 -23.394531 12.71875 -22.8125 C 13.03125 -22.320312 13.054688 -21.765625 12.796875 -21.140625 C 12.535156 -20.515625 11.847656 -19.96875 10.734375 -19.5 Z M 10.734375 -19.5 "/></g></g></g><g fill="#ffffff" fill-opacity="1"><g transform="translate(243.792279, 183.010594)"><g><path d="M 12.109375 0.796875 C 11.234375 1.515625 10.195312 2.054688 9 2.421875 C 7.8125 2.796875 6.613281 2.992188 5.40625 3.015625 C 4.207031 3.035156 3.082031 2.890625 2.03125 2.578125 C 0.988281 2.265625 0.164062 1.773438 -0.4375 1.109375 C -1.144531 0.347656 -1.390625 -0.410156 -1.171875 -1.171875 C -1.054688 -1.484375 -0.859375 -1.726562 -0.578125 -1.90625 C -0.304688 -2.082031 0.03125 -2.128906 0.4375 -2.046875 C 0.695312 -2.015625 0.890625 -2.082031 1.015625 -2.25 C 1.140625 -2.425781 1.242188 -2.617188 1.328125 -2.828125 C 1.421875 -3.035156 1.519531 -3.234375 1.625 -3.421875 C 1.738281 -3.617188 1.921875 -3.71875 2.171875 -3.71875 C 6.097656 -3.601562 8.140625 -3.945312 8.296875 -4.75 C 8.023438 -5 7.691406 -5.210938 7.296875 -5.390625 C 6.910156 -5.566406 6.519531 -5.742188 6.125 -5.921875 C 5.132812 -6.367188 4.472656 -6.859375 4.140625 -7.390625 C 3.722656 -7.617188 3.398438 -8.15625 3.171875 -9 C 3.066406 -9.375 3.015625 -9.757812 3.015625 -10.15625 C 3.015625 -10.5625 3.078125 -10.9375 3.203125 -11.28125 C 3.140625 -12.144531 3.675781 -13.101562 4.8125 -14.15625 C 5.125 -14.4375 5.515625 -14.742188 5.984375 -15.078125 C 6.453125 -15.421875 7.15625 -15.75 8.09375 -16.0625 C 9.03125 -16.375 9.960938 -16.597656 10.890625 -16.734375 C 11.816406 -16.878906 12.648438 -16.929688 13.390625 -16.890625 C 14.140625 -16.847656 14.675781 -16.671875 15 -16.359375 C 15.320312 -16.046875 15.578125 -15.65625 15.765625 -15.1875 C 15.960938 -14.71875 16.023438 -14.257812 15.953125 -13.8125 C 15.773438 -12.8125 14.953125 -12.117188 13.484375 -11.734375 C 11.628906 -11.472656 10.734375 -11.226562 10.796875 -11 C 10.796875 -10.957031 10.71875 -10.90625 10.5625 -10.84375 C 12.28125 -9.65625 13.476562 -8.492188 14.15625 -7.359375 C 15.0625 -5.796875 15.191406 -4.054688 14.546875 -2.140625 C 14.660156 -1.515625 14.101562 -0.734375 12.875 0.203125 C 12.582031 0.421875 12.328125 0.617188 12.109375 0.796875 Z M 12.109375 0.796875 "/></g></g></g><g fill="#ffffff" fill-opacity="1"><g transform="translate(260.721511, 183.010594)"><g><path d="M 9.0625 -25.015625 L 9.09375 -25.15625 L 9.40625 -25.453125 C 9.644531 -26.035156 9.910156 -26.382812 10.203125 -26.5 C 10.359375 -26.539062 10.554688 -26.59375 10.796875 -26.65625 C 11.046875 -26.726562 11.375 -26.894531 11.78125 -27.15625 C 11.9375 -27.46875 12.257812 -27.609375 12.75 -27.578125 C 13.238281 -27.546875 13.722656 -27.390625 14.203125 -27.109375 C 14.679688 -26.835938 15.070312 -26.453125 15.375 -25.953125 C 15.675781 -25.460938 15.75 -24.957031 15.59375 -24.4375 C 15.4375 -23.914062 15.304688 -23.523438 15.203125 -23.265625 C 15.097656 -23.003906 14.992188 -22.765625 14.890625 -22.546875 C 14.796875 -22.328125 14.675781 -22.078125 14.53125 -21.796875 C 14.382812 -21.515625 14.203125 -21.140625 13.984375 -20.671875 L 12.875 -18.359375 C 12.769531 -18.078125 12.675781 -17.910156 12.59375 -17.859375 C 12.519531 -17.816406 12.445312 -17.738281 12.375 -17.625 C 12.570312 -17.675781 12.738281 -17.710938 12.875 -17.734375 C 13.007812 -17.753906 13.144531 -17.773438 13.28125 -17.796875 C 13.59375 -17.835938 13.945312 -17.882812 14.34375 -17.9375 C 14.59375 -17.882812 14.804688 -17.859375 14.984375 -17.859375 L 15.453125 -17.859375 C 15.722656 -17.859375 16.046875 -17.785156 16.421875 -17.640625 C 16.804688 -17.492188 17.050781 -17.242188 17.15625 -16.890625 C 17.269531 -16.535156 17.28125 -16.171875 17.1875 -15.796875 C 17.101562 -15.429688 16.925781 -15.09375 16.65625 -14.78125 C 16.394531 -14.46875 16.050781 -14.300781 15.625 -14.28125 C 13.6875 -13.75 12.300781 -13.460938 11.46875 -13.421875 L 11.28125 -13.1875 L 11.28125 -13.140625 C 11.050781 -12.609375 10.804688 -11.9375 10.546875 -11.125 C 10.296875 -10.3125 10.019531 -9.429688 9.71875 -8.484375 C 9.414062 -7.535156 9.109375 -6.550781 8.796875 -5.53125 C 8.484375 -4.519531 8.160156 -3.546875 7.828125 -2.609375 C 6.753906 0.535156 5.972656 2.242188 5.484375 2.515625 C 5.304688 2.597656 5.125 2.65625 4.9375 2.6875 C 4.75 2.726562 4.640625 2.757812 4.609375 2.78125 C 3.835938 2.726562 3.191406 2.566406 2.671875 2.296875 C 2.160156 2.035156 1.816406 1.78125 1.640625 1.53125 C 1.460938 1.289062 1.414062 1.015625 1.5 0.703125 C 1.925781 -3.179688 2.773438 -7.429688 4.046875 -12.046875 C 3.597656 -12.046875 3.285156 -12 3.109375 -11.90625 C 2.773438 -11.726562 2.375 -11.628906 1.90625 -11.609375 L 1.875 -11.609375 C 1.519531 -11.628906 1.195312 -11.796875 0.90625 -12.109375 C 0.613281 -12.421875 0.429688 -12.773438 0.359375 -13.171875 C 0.296875 -13.578125 0.363281 -13.988281 0.5625 -14.40625 C 0.769531 -14.832031 1.171875 -15.171875 1.765625 -15.421875 C 2.484375 -15.617188 3.007812 -15.785156 3.34375 -15.921875 C 3.988281 -16.191406 4.53125 -16.378906 4.96875 -16.484375 C 5.40625 -16.597656 5.648438 -16.671875 5.703125 -16.703125 C 5.753906 -16.742188 5.796875 -16.773438 5.828125 -16.796875 C 5.890625 -16.835938 6.054688 -16.859375 6.328125 -16.859375 C 6.453125 -17.503906 6.582031 -18.160156 6.71875 -18.828125 C 6.851562 -19.503906 7.019531 -20.1875 7.21875 -20.875 C 7.664062 -22.476562 8.28125 -23.859375 9.0625 -25.015625 Z M 9.0625 -25.015625 "/></g></g></g><g fill="#ffffff" fill-opacity="1"><g transform="translate(275.308756, 183.010594)"><g><path d="M 4.6875 -14.28125 C 5.15625 -14.613281 5.734375 -14.691406 6.421875 -14.515625 C 6.554688 -14.492188 6.691406 -14.484375 6.828125 -14.484375 C 7.316406 -15.484375 8.160156 -16.007812 9.359375 -16.0625 C 9.671875 -16.082031 10.109375 -16.132812 10.671875 -16.21875 C 11.234375 -16.3125 11.910156 -16.289062 12.703125 -16.15625 C 13.492188 -16.019531 14.1875 -15.785156 14.78125 -15.453125 C 16.101562 -14.742188 16.894531 -13.71875 17.15625 -12.375 C 17.695312 -10.414062 17.617188 -8.273438 16.921875 -5.953125 C 16.191406 -3.390625 14.945312 -1.335938 13.1875 0.203125 C 12.375 0.910156 11.519531 1.359375 10.625 1.546875 C 9.738281 1.742188 8.9375 1.851562 8.21875 1.875 C 7.507812 1.894531 6.859375 1.898438 6.265625 1.890625 C 5.679688 1.878906 5.109375 1.816406 4.546875 1.703125 C 3.347656 1.460938 2.359375 0.894531 1.578125 0 C 0.660156 -1 0.269531 -2.5625 0.40625 -4.6875 C 0.488281 -6.5625 0.957031 -8.453125 1.8125 -10.359375 C 2.675781 -12.265625 3.632812 -13.570312 4.6875 -14.28125 Z M 10.578125 -7.5625 C 10.015625 -7.382812 9.488281 -7.304688 9 -7.328125 C 8.75 -7.078125 8.53125 -6.8125 8.34375 -6.53125 C 8.15625 -6.257812 7.90625 -6.003906 7.59375 -5.765625 C 7.28125 -5.535156 7.125 -5.441406 7.125 -5.484375 C 6.75 -4.953125 6.4375 -4.398438 6.1875 -3.828125 C 5.945312 -3.265625 5.945312 -2.691406 6.1875 -2.109375 C 7.082031 -2.015625 7.738281 -2.035156 8.15625 -2.171875 C 8.582031 -2.304688 8.976562 -2.5625 9.34375 -2.9375 C 9.71875 -3.320312 10.003906 -3.769531 10.203125 -4.28125 C 10.609375 -5.238281 10.734375 -6.332031 10.578125 -7.5625 Z M 10.578125 -7.5625 "/></g></g></g><g fill="#ffffff" fill-opacity="1"><g transform="translate(292.840211, 183.010594)"><g><path d="M 4.421875 -14.484375 C 4.703125 -15.222656 5.390625 -15.722656 6.484375 -15.984375 C 7.515625 -16.253906 8.472656 -16.222656 9.359375 -15.890625 C 10.273438 -15.535156 10.691406 -14.957031 10.609375 -14.15625 C 10.359375 -13.375 10.046875 -12.414062 9.671875 -11.28125 C 9.304688 -10.15625 8.957031 -9.003906 8.625 -7.828125 C 7.738281 -4.796875 7.226562 -2.65625 7.09375 -1.40625 C 6.757812 0.601562 6.203125 1.6875 5.421875 1.84375 C 5.191406 1.882812 4.976562 1.914062 4.78125 1.9375 C 4.289062 1.957031 3.976562 2.085938 3.84375 2.328125 C 3.707031 2.578125 3.484375 2.765625 3.171875 2.890625 C 2.859375 3.015625 2.519531 3.070312 2.15625 3.0625 C 1.789062 3.050781 1.414062 2.960938 1.03125 2.796875 C 0.65625 2.628906 0.332031 2.390625 0.0625 2.078125 C -0.5625 1.316406 -0.679688 0.300781 -0.296875 -0.96875 C 0.0546875 -3.394531 0.957031 -6.484375 2.40625 -10.234375 C 3.101562 -12.085938 3.773438 -13.503906 4.421875 -14.484375 Z M 10.734375 -19.5 C 9.640625 -19.28125 8.753906 -19.347656 8.078125 -19.703125 C 7.398438 -20.054688 7.003906 -20.484375 6.890625 -20.984375 C 6.773438 -21.492188 6.929688 -22.015625 7.359375 -22.546875 C 7.847656 -23.210938 8.582031 -23.648438 9.5625 -23.859375 C 10.007812 -23.898438 10.332031 -23.921875 10.53125 -23.921875 C 10.738281 -23.921875 10.988281 -23.875 11.28125 -23.78125 C 12.007812 -23.71875 12.488281 -23.394531 12.71875 -22.8125 C 13.03125 -22.320312 13.054688 -21.765625 12.796875 -21.140625 C 12.535156 -20.515625 11.847656 -19.96875 10.734375 -19.5 Z M 10.734375 -19.5 "/></g></g></g><g fill="#ffffff" fill-opacity="1"><g transform="translate(303.579907, 183.010594)"><g><path d="M 3.484375 -13.84375 C 3.796875 -14.644531 4.234375 -15.253906 4.796875 -15.671875 C 5.367188 -16.085938 5.914062 -16.34375 6.4375 -16.4375 C 6.957031 -16.539062 7.390625 -16.476562 7.734375 -16.25 C 8.085938 -16.03125 8.207031 -15.6875 8.09375 -15.21875 C 8.519531 -15.644531 9.132812 -16.035156 9.9375 -16.390625 C 10.738281 -16.742188 11.375 -16.988281 11.84375 -17.125 C 12.3125 -17.257812 12.710938 -17.328125 13.046875 -17.328125 C 13.785156 -17.285156 14 -16.882812 13.6875 -16.125 C 14.0625 -16.0625 14.335938 -15.816406 14.515625 -15.390625 C 14.691406 -14.960938 14.710938 -14.492188 14.578125 -13.984375 C 14.453125 -13.472656 14.15625 -12.96875 13.6875 -12.46875 C 13.21875 -11.976562 12.585938 -11.644531 11.796875 -11.46875 C 11.003906 -11.289062 10.34375 -10.882812 9.8125 -10.25 C 9.289062 -9.613281 8.832031 -8.828125 8.4375 -7.890625 C 7.757812 -6.304688 7.15625 -4.066406 6.625 -1.171875 C 6.445312 -0.117188 5.722656 0.757812 4.453125 1.46875 C 3.242188 2.164062 2.140625 2.367188 1.140625 2.078125 C 0.00390625 1.765625 -0.5 0.925781 -0.375 -0.4375 C -0.320312 -1.394531 -0.03125 -2.671875 0.5 -4.265625 C 1.03125 -5.859375 1.441406 -7.0625 1.734375 -7.875 C 2.023438 -8.6875 2.226562 -9.304688 2.34375 -9.734375 Z M 3.484375 -13.84375 "/></g></g></g><g fill="#ffffff" fill-opacity="1"><g transform="translate(316.862331, 183.010594)"><g><path d="M 11.671875 -4.953125 C 11.253906 -4.753906 10.84375 -4.597656 10.4375 -4.484375 C 10.03125 -4.367188 9.5625 -4.253906 9.03125 -4.140625 C 7.625 -3.859375 6.609375 -3.691406 5.984375 -3.640625 C 6.054688 -3.421875 6.390625 -3.15625 6.984375 -2.84375 C 7.390625 -2.78125 7.832031 -2.84375 8.3125 -3.03125 C 8.789062 -3.21875 9.289062 -3.394531 9.8125 -3.5625 C 10.34375 -3.726562 10.859375 -3.820312 11.359375 -3.84375 C 11.859375 -3.863281 12.332031 -3.675781 12.78125 -3.28125 C 12.957031 -2.875 13.097656 -2.632812 13.203125 -2.5625 C 13.316406 -2.5 13.421875 -2.46875 13.515625 -2.46875 C 13.609375 -2.46875 13.707031 -2.4375 13.8125 -2.375 C 13.925781 -2.3125 14.085938 -2.054688 14.296875 -1.609375 C 14.515625 -1.160156 14.460938 -0.734375 14.140625 -0.328125 C 13.816406 0.0664062 13.316406 0.410156 12.640625 0.703125 C 11.972656 0.992188 11.191406 1.226562 10.296875 1.40625 C 9.410156 1.582031 8.519531 1.703125 7.625 1.765625 C 5.613281 1.921875 4.085938 1.765625 3.046875 1.296875 C 1.523438 0.785156 0.539062 -0.222656 0.09375 -1.734375 C -0.476562 -3.742188 -0.148438 -6.085938 1.078125 -8.765625 C 1.628906 -10.015625 2.507812 -11.351562 3.71875 -12.78125 C 4.757812 -14.03125 5.925781 -14.929688 7.21875 -15.484375 C 8.71875 -16.128906 10.28125 -16.429688 11.90625 -16.390625 C 13.644531 -16.347656 14.847656 -15.59375 15.515625 -14.125 C 15.859375 -13.34375 15.925781 -12.25 15.71875 -10.84375 C 15.363281 -9.007812 14.894531 -7.710938 14.3125 -6.953125 C 13.738281 -6.222656 12.859375 -5.554688 11.671875 -4.953125 Z M 9.734375 -10.234375 C 8.554688 -10.484375 7.628906 -9.816406 6.953125 -8.234375 C 6.753906 -7.804688 6.597656 -7.359375 6.484375 -6.890625 C 7.242188 -6.796875 8.050781 -7.21875 8.90625 -8.15625 C 9.207031 -8.539062 9.4375 -8.925781 9.59375 -9.3125 C 9.75 -9.707031 9.796875 -10.015625 9.734375 -10.234375 Z M 9.734375 -10.234375 "/></g></g></g><g fill="#ffffff" fill-opacity="1"><g transform="translate(332.9886, 183.010594)"><g><path d="M 12.109375 0.796875 C 11.234375 1.515625 10.195312 2.054688 9 2.421875 C 7.8125 2.796875 6.613281 2.992188 5.40625 3.015625 C 4.207031 3.035156 3.082031 2.890625 2.03125 2.578125 C 0.988281 2.265625 0.164062 1.773438 -0.4375 1.109375 C -1.144531 0.347656 -1.390625 -0.410156 -1.171875 -1.171875 C -1.054688 -1.484375 -0.859375 -1.726562 -0.578125 -1.90625 C -0.304688 -2.082031 0.03125 -2.128906 0.4375 -2.046875 C 0.695312 -2.015625 0.890625 -2.082031 1.015625 -2.25 C 1.140625 -2.425781 1.242188 -2.617188 1.328125 -2.828125 C 1.421875 -3.035156 1.519531 -3.234375 1.625 -3.421875 C 1.738281 -3.617188 1.921875 -3.71875 2.171875 -3.71875 C 6.097656 -3.601562 8.140625 -3.945312 8.296875 -4.75 C 8.023438 -5 7.691406 -5.210938 7.296875 -5.390625 C 6.910156 -5.566406 6.519531 -5.742188 6.125 -5.921875 C 5.132812 -6.367188 4.472656 -6.859375 4.140625 -7.390625 C 3.722656 -7.617188 3.398438 -8.15625 3.171875 -9 C 3.066406 -9.375 3.015625 -9.757812 3.015625 -10.15625 C 3.015625 -10.5625 3.078125 -10.9375 3.203125 -11.28125 C 3.140625 -12.144531 3.675781 -13.101562 4.8125 -14.15625 C 5.125 -14.4375 5.515625 -14.742188 5.984375 -15.078125 C 6.453125 -15.421875 7.15625 -15.75 8.09375 -16.0625 C 9.03125 -16.375 9.960938 -16.597656 10.890625 -16.734375 C 11.816406 -16.878906 12.648438 -16.929688 13.390625 -16.890625 C 14.140625 -16.847656 14.675781 -16.671875 15 -16.359375 C 15.320312 -16.046875 15.578125 -15.65625 15.765625 -15.1875 C 15.960938 -14.71875 16.023438 -14.257812 15.953125 -13.8125 C 15.773438 -12.8125 14.953125 -12.117188 13.484375 -11.734375 C 11.628906 -11.472656 10.734375 -11.226562 10.796875 -11 C 10.796875 -10.957031 10.71875 -10.90625 10.5625 -10.84375 C 12.28125 -9.65625 13.476562 -8.492188 14.15625 -7.359375 C 15.0625 -5.796875 15.191406 -4.054688 14.546875 -2.140625 C 14.660156 -1.515625 14.101562 -0.734375 12.875 0.203125 C 12.582031 0.421875 12.328125 0.617188 12.109375 0.796875 Z M 12.109375 0.796875 "/></g></g></g><g fill="#ffffff" fill-opacity="1"><g transform="translate(182.707887, 216.010591)"><g><path d="M 6.796875 -13.6875 C 7.617188 -14.238281 8.566406 -14.40625 9.640625 -14.1875 C 10.703125 -13.9375 11.300781 -13.46875 11.4375 -12.78125 C 11.613281 -13.207031 11.75 -13.628906 11.84375 -14.046875 C 12.84375 -18.578125 13.945312 -22.035156 15.15625 -24.421875 C 15.53125 -25.160156 15.921875 -25.671875 16.328125 -25.953125 C 17.367188 -26.628906 18.472656 -26.722656 19.640625 -26.234375 C 20.109375 -26.023438 20.472656 -25.75 20.734375 -25.40625 C 21.003906 -25.0625 21.109375 -24.742188 21.046875 -24.453125 C 20.992188 -24.160156 21.019531 -23.925781 21.125 -23.75 C 21.226562 -23.570312 21.347656 -23.394531 21.484375 -23.21875 C 21.835938 -22.789062 21.976562 -22.421875 21.90625 -22.109375 C 21.46875 -20.347656 20.875 -18.523438 20.125 -16.640625 C 19.375 -14.753906 18.609375 -12.875 17.828125 -11 C 17.046875 -9.132812 16.335938 -7.289062 15.703125 -5.46875 C 15.066406 -3.65625 14.648438 -1.929688 14.453125 -0.296875 C 14.453125 0.117188 14.269531 0.5 13.90625 0.84375 C 13.550781 1.195312 13.109375 1.472656 12.578125 1.671875 C 11.304688 2.117188 10.125 2.03125 9.03125 1.40625 L 9.03125 1.203125 C 8.8125 1.140625 8.648438 1.09375 8.546875 1.0625 C 8.441406 1.039062 8.367188 1 8.328125 0.9375 C 8.265625 0.820312 8.207031 0.476562 8.15625 -0.09375 C 7.71875 0.59375 7.285156 1.015625 6.859375 1.171875 C 6.429688 1.328125 5.992188 1.40625 5.546875 1.40625 C 3.390625 1.40625 1.851562 1.015625 0.9375 0.234375 C 0.132812 -0.429688 -0.242188 -1.523438 -0.203125 -3.046875 C -0.160156 -4.742188 0.460938 -6.640625 1.671875 -8.734375 C 3.054688 -11.117188 4.765625 -12.769531 6.796875 -13.6875 Z M 6.75 -2.703125 C 7.46875 -2.460938 7.960938 -2.632812 8.234375 -3.21875 C 8.390625 -3.5 8.539062 -3.875 8.6875 -4.34375 C 8.832031 -4.8125 9.015625 -5.359375 9.234375 -5.984375 L 9.359375 -6.65625 C 8.828125 -6.96875 8.34375 -7.007812 7.90625 -6.78125 C 7.476562 -6.5625 7.128906 -6.21875 6.859375 -5.75 C 6.585938 -5.28125 6.429688 -4.753906 6.390625 -4.171875 C 6.347656 -3.597656 6.46875 -3.109375 6.75 -2.703125 Z M 6.75 -2.703125 "/></g></g></g><g fill="#ffffff" fill-opacity="1"><g transform="translate(200.841564, 216.010591)"><g><path d="M 11.671875 -4.953125 C 11.253906 -4.753906 10.84375 -4.597656 10.4375 -4.484375 C 10.03125 -4.367188 9.5625 -4.253906 9.03125 -4.140625 C 7.625 -3.859375 6.609375 -3.691406 5.984375 -3.640625 C 6.054688 -3.421875 6.390625 -3.15625 6.984375 -2.84375 C 7.390625 -2.78125 7.832031 -2.84375 8.3125 -3.03125 C 8.789062 -3.21875 9.289062 -3.394531 9.8125 -3.5625 C 10.34375 -3.726562 10.859375 -3.820312 11.359375 -3.84375 C 11.859375 -3.863281 12.332031 -3.675781 12.78125 -3.28125 C 12.957031 -2.875 13.097656 -2.632812 13.203125 -2.5625 C 13.316406 -2.5 13.421875 -2.46875 13.515625 -2.46875 C 13.609375 -2.46875 13.707031 -2.4375 13.8125 -2.375 C 13.925781 -2.3125 14.085938 -2.054688 14.296875 -1.609375 C 14.515625 -1.160156 14.460938 -0.734375 14.140625 -0.328125 C 13.816406 0.0664062 13.316406 0.410156 12.640625 0.703125 C 11.972656 0.992188 11.191406 1.226562 10.296875 1.40625 C 9.410156 1.582031 8.519531 1.703125 7.625 1.765625 C 5.613281 1.921875 4.085938 1.765625 3.046875 1.296875 C 1.523438 0.785156 0.539062 -0.222656 0.09375 -1.734375 C -0.476562 -3.742188 -0.148438 -6.085938 1.078125 -8.765625 C 1.628906 -10.015625 2.507812 -11.351562 3.71875 -12.78125 C 4.757812 -14.03125 5.925781 -14.929688 7.21875 -15.484375 C 8.71875 -16.128906 10.28125 -16.429688 11.90625 -16.390625 C 13.644531 -16.347656 14.847656 -15.59375 15.515625 -14.125 C 15.859375 -13.34375 15.925781 -12.25 15.71875 -10.84375 C 15.363281 -9.007812 14.894531 -7.710938 14.3125 -6.953125 C 13.738281 -6.222656 12.859375 -5.554688 11.671875 -4.953125 Z M 9.734375 -10.234375 C 8.554688 -10.484375 7.628906 -9.816406 6.953125 -8.234375 C 6.753906 -7.804688 6.597656 -7.359375 6.484375 -6.890625 C 7.242188 -6.796875 8.050781 -7.21875 8.90625 -8.15625 C 9.207031 -8.539062 9.4375 -8.925781 9.59375 -9.3125 C 9.75 -9.707031 9.796875 -10.015625 9.734375 -10.234375 Z M 9.734375 -10.234375 "/></g></g></g><g fill="#ffffff" fill-opacity="1"><g transform="translate(216.967834, 216.010591)"><g/></g></g><g fill="#ffffff" fill-opacity="1"><g transform="translate(227.406412, 216.010591)"><g><path d="M 2.28125 -12.984375 C 2.71875 -14.472656 3.078125 -15.625 3.359375 -16.4375 C 3.640625 -17.25 3.910156 -17.976562 4.171875 -18.625 C 4.441406 -19.28125 4.75 -19.90625 5.09375 -20.5 C 5.445312 -21.101562 5.828125 -21.65625 6.234375 -22.15625 C 6.648438 -22.664062 7.09375 -23.0625 7.5625 -23.34375 C 8.03125 -23.632812 8.519531 -23.78125 9.03125 -23.78125 C 9.539062 -23.78125 10.078125 -23.582031 10.640625 -23.1875 C 11.523438 -20.957031 12.070312 -19.460938 12.28125 -18.703125 C 12.539062 -17.585938 12.785156 -16.015625 13.015625 -13.984375 C 13.210938 -14.492188 13.4375 -15.03125 13.6875 -15.59375 C 13.945312 -16.164062 14.203125 -16.742188 14.453125 -17.328125 C 15.140625 -18.796875 15.570312 -19.910156 15.75 -20.671875 C 16.25 -22.234375 17.265625 -23.40625 18.796875 -24.1875 C 20.140625 -24.851562 21.390625 -25.066406 22.546875 -24.828125 C 23.015625 -24.734375 23.34375 -24.539062 23.53125 -24.25 C 23.71875 -23.957031 23.71875 -23.65625 23.53125 -23.34375 C 23.34375 -23.03125 23.273438 -22.734375 23.328125 -22.453125 C 23.390625 -22.179688 23.441406 -21.859375 23.484375 -21.484375 C 23.546875 -20.453125 23.363281 -19.539062 22.9375 -18.75 C 22.519531 -17.957031 22.085938 -16.972656 21.640625 -15.796875 C 21.191406 -14.628906 20.738281 -13.390625 20.28125 -12.078125 C 19.832031 -10.765625 19.375 -9.425781 18.90625 -8.0625 C 18.4375 -6.695312 17.976562 -5.457031 17.53125 -4.34375 C 16.550781 -1.78125 15.75 -0.363281 15.125 -0.09375 C 14.269531 0.414062 13.644531 0.710938 13.25 0.796875 C 12.738281 0.890625 12.015625 0.890625 11.078125 0.796875 C 10.492188 0.753906 9.988281 0.0078125 9.5625 -1.4375 C 9.320312 -2.21875 9.101562 -3.300781 8.90625 -4.6875 C 8.539062 -7.09375 8.289062 -8.421875 8.15625 -8.671875 C 7.269531 -5.765625 6.640625 -3.929688 6.265625 -3.171875 C 5.898438 -2.421875 5.625 -1.921875 5.4375 -1.671875 C 5.25 -1.421875 5.019531 -1.097656 4.75 -0.703125 C 4.457031 0.0976562 3.765625 0.691406 2.671875 1.078125 C 1.734375 1.429688 0.890625 1.484375 0.140625 1.234375 C -0.691406 0.972656 -0.941406 0.460938 -0.609375 -0.296875 C -0.359375 -2.972656 0.601562 -7.203125 2.28125 -12.984375 Z M 2.28125 -12.984375 "/></g></g></g><g fill="#ffffff" fill-opacity="1"><g transform="translate(248.484311, 216.010591)"><g><path d="M 4.6875 -14.28125 C 5.15625 -14.613281 5.734375 -14.691406 6.421875 -14.515625 C 6.554688 -14.492188 6.691406 -14.484375 6.828125 -14.484375 C 7.316406 -15.484375 8.160156 -16.007812 9.359375 -16.0625 C 9.671875 -16.082031 10.109375 -16.132812 10.671875 -16.21875 C 11.234375 -16.3125 11.910156 -16.289062 12.703125 -16.15625 C 13.492188 -16.019531 14.1875 -15.785156 14.78125 -15.453125 C 16.101562 -14.742188 16.894531 -13.71875 17.15625 -12.375 C 17.695312 -10.414062 17.617188 -8.273438 16.921875 -5.953125 C 16.191406 -3.390625 14.945312 -1.335938 13.1875 0.203125 C 12.375 0.910156 11.519531 1.359375 10.625 1.546875 C 9.738281 1.742188 8.9375 1.851562 8.21875 1.875 C 7.507812 1.894531 6.859375 1.898438 6.265625 1.890625 C 5.679688 1.878906 5.109375 1.816406 4.546875 1.703125 C 3.347656 1.460938 2.359375 0.894531 1.578125 0 C 0.660156 -1 0.269531 -2.5625 0.40625 -4.6875 C 0.488281 -6.5625 0.957031 -8.453125 1.8125 -10.359375 C 2.675781 -12.265625 3.632812 -13.570312 4.6875 -14.28125 Z M 10.578125 -7.5625 C 10.015625 -7.382812 9.488281 -7.304688 9 -7.328125 C 8.75 -7.078125 8.53125 -6.8125 8.34375 -6.53125 C 8.15625 -6.257812 7.90625 -6.003906 7.59375 -5.765625 C 7.28125 -5.535156 7.125 -5.441406 7.125 -5.484375 C 6.75 -4.953125 6.4375 -4.398438 6.1875 -3.828125 C 5.945312 -3.265625 5.945312 -2.691406 6.1875 -2.109375 C 7.082031 -2.015625 7.738281 -2.035156 8.15625 -2.171875 C 8.582031 -2.304688 8.976562 -2.5625 9.34375 -2.9375 C 9.71875 -3.320312 10.003906 -3.769531 10.203125 -4.28125 C 10.609375 -5.238281 10.734375 -6.332031 10.578125 -7.5625 Z M 10.578125 -7.5625 "/></g></g></g><g fill="#ffffff" fill-opacity="1"><g transform="translate(266.015766, 216.010591)"><g><path d="M 5.59375 -14.484375 C 7.082031 -15.085938 8.082031 -15.097656 8.59375 -14.515625 C 8.863281 -14.203125 9 -13.769531 9 -13.21875 L 9 -13.046875 C 9.820312 -14.003906 11.257812 -14.804688 13.3125 -15.453125 C 15.476562 -16.117188 17.265625 -16.3125 18.671875 -16.03125 C 20.492188 -15.644531 21.519531 -14.445312 21.75 -12.4375 C 21.925781 -10.75 21.535156 -8.597656 20.578125 -5.984375 C 20.265625 -5.316406 20.023438 -4.773438 19.859375 -4.359375 C 19.691406 -3.953125 19.539062 -3.582031 19.40625 -3.25 C 19.113281 -2.625 18.65625 -1.875 18.03125 -1 C 17.675781 -0.332031 17.125 0.175781 16.375 0.53125 C 15.625 0.894531 14.882812 1.101562 14.15625 1.15625 C 13.4375 1.207031 12.84375 1.09375 12.375 0.8125 C 11.90625 0.539062 11.769531 0.101562 11.96875 -0.5 C 12.488281 -1.882812 12.914062 -3.144531 13.25 -4.28125 C 13.582031 -5.414062 13.925781 -6.382812 14.28125 -7.1875 C 14.613281 -8.332031 14.660156 -9.046875 14.421875 -9.328125 C 14.222656 -9.554688 13.875 -9.523438 13.375 -9.234375 C 12.957031 -8.960938 12.660156 -8.648438 12.484375 -8.296875 C 12.078125 -8.003906 11.316406 -6.84375 10.203125 -4.8125 C 9.890625 -4.257812 9.582031 -3.707031 9.28125 -3.15625 C 8.976562 -2.613281 8.695312 -2.109375 8.4375 -1.640625 C 8.1875 -1.171875 7.96875 -0.78125 7.78125 -0.46875 C 7.59375 -0.15625 7.425781 0.046875 7.28125 0.140625 C 7.132812 0.242188 7.007812 0.3125 6.90625 0.34375 C 6.800781 0.382812 6.71875 0.425781 6.65625 0.46875 C 6.59375 0.507812 6.535156 0.65625 6.484375 0.90625 C 6.398438 1.414062 5.867188 1.796875 4.890625 2.046875 C 3.304688 2.441406 1.878906 2.375 0.609375 1.84375 C 0.179688 1.664062 -0.15625 1.421875 -0.40625 1.109375 C -0.914062 0.078125 -0.0351562 -3.410156 2.234375 -9.359375 C 3.046875 -11.460938 3.570312 -12.710938 3.8125 -13.109375 C 4.375 -13.960938 4.738281 -14.441406 4.90625 -14.546875 C 5.070312 -14.660156 5.300781 -14.640625 5.59375 -14.484375 Z M 5.59375 -14.484375 "/></g></g></g><g fill="#ffffff" fill-opacity="1"><g transform="translate(287.829715, 216.010591)"><g><path d="M 15.328125 -14.34375 L 15.453125 -14.3125 C 15.492188 -14.3125 15.515625 -14.300781 15.515625 -14.28125 C 16.097656 -14.507812 16.578125 -14.34375 16.953125 -13.78125 C 17.203125 -13.40625 17.394531 -12.828125 17.53125 -12.046875 C 17.570312 -10.972656 17.457031 -9.488281 17.1875 -7.59375 C 16.675781 -3.757812 16.398438 -1.472656 16.359375 -0.734375 C 16.398438 0.046875 15.921875 0.582031 14.921875 0.875 C 14.046875 1.132812 13.175781 1.125 12.3125 0.84375 C 11.394531 0.53125 11.015625 0.046875 11.171875 -0.609375 C 10.992188 -0.265625 10.816406 -0.0234375 10.640625 0.109375 C 10.460938 0.253906 10.109375 0.457031 9.578125 0.71875 C 9.054688 0.976562 8.316406 1.191406 7.359375 1.359375 C 6.398438 1.523438 5.441406 1.566406 4.484375 1.484375 C 3.523438 1.410156 2.648438 1.175781 1.859375 0.78125 C 1.066406 0.394531 0.535156 -0.207031 0.265625 -1.03125 C -0.242188 -2.644531 -0.175781 -4.6875 0.46875 -7.15625 C 0.914062 -8.78125 1.71875 -10.21875 2.875 -11.46875 C 4.21875 -12.894531 5.734375 -14.078125 7.421875 -15.015625 C 8.691406 -15.710938 9.921875 -16.128906 11.109375 -16.265625 C 11.503906 -16.304688 11.851562 -16.289062 12.15625 -16.21875 C 12.457031 -16.15625 12.78125 -16.085938 13.125 -16.015625 C 13.476562 -15.953125 13.8125 -15.851562 14.125 -15.71875 C 14.925781 -15.382812 15.328125 -14.925781 15.328125 -14.34375 Z M 9.125 -5.484375 C 9.28125 -5.796875 9.410156 -6.1875 9.515625 -6.65625 C 9.617188 -7.125 9.757812 -7.640625 9.9375 -8.203125 C 8.125 -7.460938 6.738281 -6.554688 5.78125 -5.484375 C 4.738281 -4.304688 4.804688 -3.492188 5.984375 -3.046875 C 7.015625 -2.773438 7.765625 -2.941406 8.234375 -3.546875 C 8.429688 -3.816406 8.609375 -4.148438 8.765625 -4.546875 C 8.921875 -4.953125 9.109375 -5.363281 9.328125 -5.78125 C 9.265625 -5.675781 9.195312 -5.578125 9.125 -5.484375 Z M 9.125 -5.484375 "/></g></g></g><g fill="#ffffff" fill-opacity="1"><g transform="translate(305.762651, 216.010591)"><g><path d="M 12.015625 -14.9375 C 12.585938 -15.375 12.984375 -15.703125 13.203125 -15.921875 C 13.429688 -16.148438 13.664062 -16.363281 13.90625 -16.5625 C 14.15625 -16.757812 14.390625 -16.878906 14.609375 -16.921875 C 14.835938 -16.972656 15.09375 -16.957031 15.375 -16.875 C 15.65625 -16.800781 15.910156 -16.726562 16.140625 -16.65625 C 16.378906 -16.59375 16.519531 -16.550781 16.5625 -16.53125 C 16.800781 -16.28125 17 -15.953125 17.15625 -15.546875 C 17.3125 -15.148438 17.390625 -14.835938 17.390625 -14.609375 C 17.390625 -14.390625 17.320312 -14.191406 17.1875 -14.015625 C 16.75 -12.859375 15.570312 -11.21875 13.65625 -9.09375 C 13.1875 -8.5625 12.769531 -8.128906 12.40625 -7.796875 C 12.613281 -7.128906 12.757812 -6.25 12.84375 -5.15625 C 13.070312 -2.894531 13.21875 -1.597656 13.28125 -1.265625 C 13.34375 -0.929688 13.382812 -0.6875 13.40625 -0.53125 C 13.4375 -0.375 13.503906 -0.21875 13.609375 -0.0625 C 13.703125 0.3125 13.585938 0.609375 13.265625 0.828125 C 12.941406 1.054688 12.535156 1.226562 12.046875 1.34375 C 11.015625 1.582031 10.144531 1.613281 9.4375 1.4375 C 9.082031 1.164062 8.828125 0.832031 8.671875 0.4375 C 8.441406 -0.03125 8.09375 -1 7.625 -2.46875 C 7.382812 -2.207031 7.148438 -1.941406 6.921875 -1.671875 C 6.703125 -1.398438 6.476562 -1.132812 6.25 -0.875 L 5.78125 -0.234375 C 5.65625 -0.0546875 5.53125 0.117188 5.40625 0.296875 C 5.28125 0.472656 5.140625 0.664062 4.984375 0.875 C 4.671875 1.226562 4.203125 1.59375 3.578125 1.96875 C 2.972656 2.21875 2.414062 2.332031 1.90625 2.3125 C 0.945312 2.238281 0.421875 1.976562 0.328125 1.53125 C -0.179688 1.351562 -0.476562 1.082031 -0.5625 0.71875 C -0.65625 0.351562 -0.601562 -0.226562 -0.40625 -1.03125 C 1.601562 -4.6875 3.378906 -7.1875 4.921875 -8.53125 C 4.710938 -8.84375 4.554688 -9.320312 4.453125 -9.96875 C 4.203125 -11.175781 3.976562 -11.957031 3.78125 -12.3125 C 3.21875 -12.46875 2.8125 -12.753906 2.5625 -13.171875 C 2.320312 -13.597656 2.394531 -14.191406 2.78125 -14.953125 L 3.171875 -15.421875 C 4.046875 -16.203125 4.945312 -16.671875 5.875 -16.828125 C 6.800781 -16.984375 7.65625 -16.757812 8.4375 -16.15625 C 9.007812 -15.9375 9.644531 -15.3125 10.34375 -14.28125 C 10.519531 -14.019531 10.628906 -13.796875 10.671875 -13.609375 C 11.003906 -14.054688 11.453125 -14.5 12.015625 -14.9375 Z M 12.015625 -14.9375 "/></g></g></g></svg>